Coordinates
version=1
nRows=31
nColumns=33
inDegrees=yes

Units are S.I. units (second, meters, Newtons, ...)
Angles are in degrees.

endheader
time	ground_thorax_rot_x	ground_thorax_rot_y	ground_thorax_rot_z	ground_thorax_tx	ground_thorax_ty	ground_thorax_tz	clav_prot_r	clav_elev_r	scapula_abduction_r	scapula_elevation_r	scapula_upward_rot_r	scapula_winging_r	shoulder_elv_r	plane_of_elev_r	axial_rot_r	elbow_flexion_r	pro_sup_r	wrist_flex_r	wrist_dev_r	clav_prot_l	clav_elev_l	scapula_abduction_l	scapula_elevation_l	scapula_upward_rot_l	scapula_winging_l	shoulder_elv_l	plane_of_elev_l	axial_rot_l	elbow_flexion_l	pro_sup_l	wrist_flex_l	wrist_dev_l	
7.0300	-38.070867	-12.322415	22.462715	-242.229331	833.356112	7.073101	6.383681	-45.000000	38.059594	-45.000000	-34.973241	-2623.164567	-2627.046540	146.402894	-115.478074	733.416979	22.405729	18.806947	3.956087	13.831380	37.167006	-35.382789	-45.000000	-45.000000	1524.885371	-2611.393985	134.851013	-180.000000	12.357360	39.282570	2.176301	-20.201503	
7.0400	-38.146617	-12.255906	22.329043	-243.523239	833.562558	7.039898	6.418281	-45.000000	37.977188	-45.000000	-35.234618	-2623.208153	-2627.038244	146.390436	-115.507891	733.455051	23.190362	18.735148	3.804488	13.801159	37.154270	-35.326788	-45.000000	-45.000000	1524.896319	-2611.386514	134.890370	-180.000000	12.392938	40.043646	2.051899	-20.127783	
7.0500	-38.209510	-12.216913	22.211165	-244.786284	833.764128	6.993880	6.436669	-45.000000	37.928122	-45.000000	-35.489006	-2623.248222	-2627.017799	146.400393	-115.557316	733.512515	24.022954	18.654847	3.642901	13.787619	37.138401	-35.255560	-45.000000	-45.000000	1524.932958	-2611.386748	134.914265	-180.000000	12.435925	40.822751	1.929838	-20.056098	
7.0600	-38.271995	-12.176320	22.091680	-246.016437	833.957970	6.935527	6.462151	-45.000000	37.865442	-45.000000	-35.744364	-2623.288499	-2627.003369	146.401719	-115.607682	733.572756	24.902100	18.569044	3.488272	13.766371	37.124262	-35.191712	-45.000000	-45.000000	1524.963930	-2611.388225	134.947995	-180.000000	12.483502	41.616407	1.808373	-19.985436	
7.0700	-38.323398	-12.158993	21.981035	-247.212123	834.140943	6.865487	6.475528	-45.000000	37.826164	-45.000000	-35.995172	-2623.323150	-2626.983044	146.415389	-115.669483	733.647567	25.824279	18.474960	3.326681	13.758758	37.107156	-35.113579	-45.000000	-45.000000	1525.012151	-2611.397686	134.970680	-180.000000	12.535043	42.424295	1.690452	-19.917718	
7.0800	-38.376505	-12.130536	21.866617	-248.371305	834.309762	6.784602	6.497742	-45.000000	37.762472	-45.000000	-36.247929	-2623.358953	-2626.972344	146.414418	-115.725710	733.717658	26.786131	18.375301	3.174887	13.740340	37.093247	-35.041604	-45.000000	-45.000000	1525.047333	-2611.401012	134.993487	-180.000000	12.578975	43.238901	1.576238	-19.850725	
7.0900	-38.421614	-12.108606	21.755910	-249.492349	834.461418	6.693849	6.513569	-45.000000	37.709451	-45.000000	-36.498912	-2623.392875	-2626.958141	146.416789	-115.785808	733.793294	27.779288	18.267236	3.020127	13.728448	37.079479	-34.961360	-45.000000	-45.000000	1525.081674	-2611.403814	135.007684	-180.000000	12.620344	44.053676	1.468982	-19.788762	
7.1000	-38.468369	-12.070992	21.639318	-250.573659	834.593287	6.594315	6.543872	-45.000000	37.630400	-45.000000	-36.754825	-2623.428692	-2626.954702	146.401047	-115.836464	733.858997	28.804592	18.154257	2.879525	13.703997	37.069463	-34.892449	-45.000000	-45.000000	1525.094342	-2611.399905	135.029411	-180.000000	12.653051	44.864571	1.368144	-19.730385	
7.1100	-38.507527	-12.039695	21.527998	-251.614458	834.703358	6.487094	6.571781	-45.000000	37.557503	-45.000000	-37.012586	-2623.463698	-2626.950426	146.386866	-115.887729	733.925238	29.857062	18.032876	2.739321	13.683495	37.059392	-34.820484	-45.000000	-45.000000	1525.102952	-2611.393125	135.046973	-180.000000	12.680213	45.668316	1.274111	-19.676410	
7.1200	-38.540923	-12.006287	21.418393	-252.614444	834.790160	6.373247	6.602028	-45.000000	37.479759	-45.000000	-37.276810	-2623.499068	-2626.945780	146.368158	-115.929426	733.993357	30.933506	17.908360	2.609226	13.658640	37.050761	-34.752032	-45.000000	-45.000000	1525.109014	-2611.384016	135.058113	-180.000000	12.706743	46.458221	1.183905	-19.625070	
7.1300	-38.564553	-11.981092	21.312802	-253.574081	834.852740	6.253764	6.626305	-45.000000	37.416824	-45.000000	-37.544963	-2623.532951	-2626.935447	146.354905	-115.964660	734.068282	32.028630	17.777690	2.480869	13.637991	37.041480	-34.681387	-45.000000	-45.000000	1525.116752	-2611.376344	135.068565	-180.000000	12.743490	47.229245	1.097440	-19.579399	
7.1400	-38.580540	-11.964210	21.210699	-254.494029	834.890471	6.129620	6.652884	-45.000000	37.357736	-45.000000	-37.817254	-2623.562937	-2626.928456	146.343471	-115.988226	734.145856	33.148577	17.643968	2.363856	13.616413	37.032024	-34.614863	-45.000000	-45.000000	1525.125471	-2611.377730	135.084114	-180.000000	12.786583	47.984583	1.013880	-19.537523	
7.1500	-38.589901	-11.955051	21.112428	-255.375010	834.902919	6.001846	6.677603	-45.000000	37.303740	-45.000000	-38.091328	-2623.589571	-2626.924137	146.334768	-116.001915	734.223081	34.293766	17.503083	2.251495	13.596681	37.021716	-34.545744	-45.000000	-45.000000	1525.132207	-2611.379376	135.099388	-180.000000	12.832027	48.724996	0.933421	-19.498611	
7.1600	-38.592338	-11.953469	21.017898	-256.217347	834.889631	5.871630	6.702899	-45.000000	37.251625	-45.000000	-38.365532	-2623.611953	-2626.923577	146.327916	-116.002486	734.301050	35.465468	17.358857	2.150118	13.574731	37.012183	-34.481127	-45.000000	-45.000000	1525.136539	-2611.390483	135.118783	-180.000000	12.877532	49.450809	0.856076	-19.461782	
7.1700	-38.587249	-11.960461	20.930089	-257.020971	834.850005	5.740378	6.727418	-45.000000	37.204346	-45.000000	-38.637275	-2623.633288	-2626.925341	146.325407	-115.993499	734.380856	36.668958	17.208118	2.053271	13.556048	37.001669	-34.414378	-45.000000	-45.000000	1525.137237	-2611.403701	135.138598	-180.000000	12.921366	50.165398	0.781652	-19.426353	
7.1800	-38.577413	-11.974686	20.849762	-257.785187	834.783247	5.609755	6.754161	-45.000000	37.153920	-45.000000	-38.905907	-2623.653272	-2626.932170	146.324888	-115.972311	734.463353	37.907932	17.054911	1.967324	13.535407	36.991717	-34.350654	-45.000000	-45.000000	1525.136203	-2611.419015	135.161141	-180.000000	12.964169	50.870473	0.709383	-19.391564	
7.1900	-38.561695	-11.999311	20.781969	-258.509020	834.688409	5.481601	6.779337	-45.000000	37.106164	-45.000000	-39.168690	-2623.675289	-2626.943028	146.331528	-115.943584	734.550607	39.183676	16.895771	1.884989	13.518583	36.980789	-34.284292	-45.000000	-45.000000	1525.133835	-2611.431906	135.183310	-180.000000	13.004915	51.567645	0.639297	-19.357109	
7.2000	-38.542037	-12.033446	20.724857	-259.191314	834.564542	5.357831	6.806773	-45.000000	37.054649	-45.000000	-39.424519	-2623.697915	-2626.960323	146.341905	-115.904461	734.646039	40.500008	16.735914	1.812938	13.499606	36.970171	-34.222345	-45.000000	-45.000000	1525.131102	-2611.449210	135.209943	-180.000000	13.045529	52.258587	0.570713	-19.322525	
7.2100	-38.518287	-12.075896	20.675325	-259.831006	834.410959	5.240299	6.834215	-45.000000	37.002593	-45.000000	-39.670215	-2623.720446	-2626.984309	146.356367	-115.855428	734.748208	41.857318	16.572801	1.746208	13.484436	36.958541	-34.154838	-45.000000	-45.000000	1525.124059	-2611.462257	135.234273	-180.000000	13.085730	52.944588	0.504163	-19.288950	
7.2200	-38.493679	-12.121908	20.627511	-260.427099	834.227458	5.130715	6.863336	-45.000000	36.945365	-45.000000	-39.907355	-2623.739851	-2627.014116	146.369424	-115.789016	734.855009	43.246604	16.411767	1.692050	13.465494	36.947432	-34.088711	-45.000000	-45.000000	1525.114634	-2611.474491	135.258516	-180.000000	13.126799	53.620951	0.439114	-19.255673	
7.2300	-38.464864	-12.171473	20.572928	-260.978723	834.014622	5.030593	6.889491	-45.000000	36.893264	-45.000000	-40.142611	-2623.750105	-2627.044935	146.377405	-115.705164	734.961770	44.649992	16.251136	1.645871	13.449528	36.936110	-34.013025	-45.000000	-45.000000	1525.095951	-2611.484470	135.277713	-180.000000	13.165350	54.281102	0.378114	-19.225498	
7.2400	-38.431327	-12.228265	20.524790	-261.485266	833.773813	4.941223	6.914934	-45.000000	36.845582	-45.000000	-40.379368	-2623.757798	-2627.075827	146.386022	-115.612664	735.073869	46.058048	16.093886	1.610180	13.428743	36.924500	-33.947680	-45.000000	-45.000000	1525.078250	-2611.512527	135.303151	-180.000000	13.205809	54.921047	0.319436	-19.195953	
7.2500	-38.394391	-12.286623	20.481696	-261.945958	833.507438	4.863765	6.940026	-45.000000	36.800781	-45.000000	-40.614588	-2623.763857	-2627.107431	146.395897	-115.517563	735.190211	47.471317	15.938155	1.580785	13.411269	36.913039	-33.880579	-45.000000	-45.000000	1525.054832	-2611.539127	135.324751	-180.000000	13.248931	55.542101	0.264172	-19.169768	
7.2600	-38.359024	-12.346319	20.455446	-262.360065	833.218650	4.799259	6.966658	-45.000000	36.750897	-45.000000	-40.846834	-2623.774879	-2627.143200	146.412007	-115.424064	735.312159	48.889435	15.784649	1.559319	13.391908	36.901513	-33.821921	-45.000000	-45.000000	1525.033004	-2611.565483	135.345652	-180.000000	13.297726	56.143993	0.210379	-19.144713	
7.2700	-38.325345	-12.405421	20.436946	-262.726088	832.912017	4.748751	6.993018	-45.000000	36.699878	-45.000000	-41.071755	-2623.786190	-2627.180956	146.430443	-115.334291	735.436701	50.309599	15.631782	1.542479	13.377517	36.891244	-33.759463	-45.000000	-45.000000	1525.005525	-2611.580804	135.361350	-180.000000	13.345937	56.727053	0.160614	-19.123256	
7.2800	-38.295100	-12.467981	20.435184	-263.042767	832.592542	4.713136	7.021012	-45.000000	36.645445	-45.000000	-41.282910	-2623.803410	-2627.222754	146.454944	-115.253266	735.568618	51.732913	15.480383	1.530516	13.363155	36.880693	-33.706254	-45.000000	-45.000000	1524.981720	-2611.599314	135.379207	-180.000000	13.396253	57.292050	0.112843	-19.102510	
7.2900	-38.270048	-12.526085	20.432332	-263.308504	832.265977	4.693201	7.049286	-45.000000	36.590143	-45.000000	-41.473035	-2623.818124	-2627.265195	146.477345	-115.173986	735.700222	53.154874	15.331092	1.523958	13.353200	36.871899	-33.647926	-45.000000	-45.000000	1524.952732	-2611.604513	135.391512	-180.000000	13.443505	57.837606	0.068972	-19.084456	
7.3000	-38.250922	-12.581757	20.428778	-263.522479	831.937784	4.689392	7.076690	-45.000000	36.536412	-45.000000	-41.643282	-2623.829962	-2627.307828	146.495844	-115.094165	735.829510	54.559229	15.185544	1.523366	13.343789	36.862611	-33.592144	-45.000000	-45.000000	1524.922678	-2611.609639	135.401202	-180.000000	13.487862	58.357171	0.028388	-19.067488	
7.3100	-38.233416	-12.635869	20.417079	-263.683951	831.613506	4.701866	7.100483	-45.000000	36.493944	-45.000000	-41.793970	-2623.832910	-2627.344811	146.506518	-115.016550	735.954123	55.930774	15.044083	1.526702	13.337567	36.854617	-33.535141	-45.000000	-45.000000	1524.888029	-2611.618150	135.408814	-180.000000	13.524622	58.846107	-0.007032	-19.052530	
7.3200	-38.218529	-12.688264	20.405119	-263.793717	831.297425	4.730203	7.123586	-45.000000	36.457093	-45.000000	-41.925142	-2623.834327	-2627.378918	146.509738	-114.948020	736.079600	57.262534	14.908707	1.532886	13.330807	36.844908	-33.487395	-45.000000	-45.000000	1524.855751	-2611.638351	135.414968	-180.000000	13.560737	59.302109	-0.039440	-19.038112	
7.3300	-38.205820	-12.734344	20.389371	-263.853138	830.992963	4.773593	7.146554	-45.000000	36.426504	-45.000000	-42.033626	-2623.833987	-2627.408228	146.504364	-114.891139	736.203659	58.553708	14.779310	1.540664	13.326073	36.834924	-33.443412	-45.000000	-45.000000	1524.822640	-2611.662115	135.415847	-180.000000	13.596438	59.726721	-0.068428	-19.025298	
